<svg id="visual" viewBox="0 0 900 600" width="900" height="600" xmlns="http://www.w3.org/2000/svg" xmlns:xlink="http://www.w3.org/1999/xlink" version="1.1"><path d="M0 55L16.7 70C33.3 85 66.7 115 100 126C133.3 137 166.7 129 200 114C233.3 99 266.7 77 300 64C333.3 51 366.7 47 400 44C433.3 41 466.7 39 500 40C533.3 41 566.7 45 600 62C633.3 79 666.7 109 700 107C733.3 105 766.7 71 800 71C833.3 71 866.7 105 883.3 122L900 139L900 0L883.3 0C866.7 0 833.3 0 800 0C766.7 0 733.3 0 700 0C666.7 0 633.3 0 600 0C566.7 0 533.3 0 500 0C466.7 0 433.3 0 400 0C366.7 0 333.3 0 300 0C266.7 0 233.3 0 200 0C166.7 0 133.3 0 100 0C66.7 0 33.3 0 16.7 0L0 0Z" fill="#6198ff"></path><path d="M0 265L16.7 260C33.3 255 66.7 245 100 237C133.3 229 166.7 223 200 215C233.3 207 266.7 197 300 200C333.3 203 366.7 219 400 208C433.3 197 466.7 159 500 150C533.3 141 566.7 161 600 174C633.3 187 666.7 193 700 201C733.3 209 766.7 219 800 236C833.3 253 866.7 277 883.3 289L900 301L900 137L883.3 120C866.7 103 833.3 69 800 69C766.7 69 733.3 103 700 105C666.7 107 633.3 77 600 60C566.7 43 533.3 39 500 38C466.7 37 433.3 39 400 42C366.7 45 333.3 49 300 62C266.7 75 233.3 97 200 112C166.7 127 133.3 135 100 124C66.7 113 33.3 83 16.7 68L0 53Z" fill="#2d77ff"></path><path d="M0 385L16.7 385C33.3 385 66.7 385 100 395C133.3 405 166.7 425 200 424C233.3 423 266.7 401 300 413C333.3 425 366.7 471 400 470C433.3 469 466.7 421 500 407C533.3 393 566.7 413 600 416C633.3 419 666.7 405 700 409C733.3 413 766.7 435 800 437C833.3 439 866.7 421 883.3 412L900 403L900 299L883.3 287C866.7 275 833.3 251 800 234C766.7 217 733.3 207 700 199C666.7 191 633.3 185 600 172C566.7 159 533.3 139 500 148C466.7 157 433.3 195 400 206C366.7 217 333.3 201 300 198C266.7 195 233.3 205 200 213C166.7 221 133.3 227 100 235C66.7 243 33.3 253 16.7 258L0 263Z" fill="#005de8"></path><path d="M0 601L16.7 601C33.3 601 66.7 601 100 601C133.3 601 166.7 601 200 601C233.3 601 266.7 601 300 601C333.3 601 366.7 601 400 601C433.3 601 466.7 601 500 601C533.3 601 566.7 601 600 601C633.3 601 666.7 601 700 601C733.3 601 766.7 601 800 601C833.3 601 866.7 601 883.3 601L900 601L900 401L883.3 410C866.7 419 833.3 437 800 435C766.7 433 733.3 411 700 407C666.7 403 633.3 417 600 414C566.7 411 533.3 391 500 405C466.7 419 433.3 467 400 468C366.7 469 333.3 423 300 411C266.7 399 233.3 421 200 422C166.7 423 133.3 403 100 393C66.7 383 33.3 383 16.7 383L0 383Z" fill="#004cbb"></path></svg>